<?xml version="1.0" ?><svg id="Layer_35" style="enable-background:new 0 0 64 64;" version="1.1" viewBox="0 0 64 64" xml:space="preserve" xmlns="http://www.w3.org/2000/svg" xmlns:xlink="http://www.w3.org/1999/xlink"><g><g><path d="M39,55H23V43h16V55z" style="fill:#F0BC5E;"/></g><g><path d="M21,55H5V43h16V55z" style="fill:#F0BC5E;"/></g><polygon points="42,18 31,18 31,5 45,5 45,7 42,7  " style="fill:#F0BC5E;"/><g><path d="M55.032,20.712C56.824,19.443,58,17.358,58,15c0-3.859-3.141-7-7-7c-0.695,0-1.366,0.105-2,0.295V1H11.586L1,11.586V59h43    c0,2.206,1.794,4,4,4c1.201,0,2.266-0.542,3-1.382C51.734,62.458,52.799,63,54,63c2.206,0,4-1.794,4-4V40h1.5    c1.93,0,3.5-1.57,3.5-3.5V32C63,26.799,59.669,22.373,55.032,20.712z M56,15c0,2.757-2.243,5-5,5s-5-2.243-5-5s2.243-5,5-5    S56,12.243,56,15z M11,4.414V11H4.414L11,4.414z M3,57V13h10V3h34v6.088h0.269C45.308,10.33,44,12.513,44,15    c0,2.353,1.171,4.433,2.956,5.703c-3.681,1.317-6.565,4.385-7.569,8.297h-8.428C30.984,28.668,31,28.334,31,28    c0-7.168-5.832-13-13-13S5,20.832,5,28s5.832,13,13,13c3.536,0,6.913-1.46,9.359-4H44v20H3z M51.5,33    c-1.391,0-2.585,0.822-3.149,2H48v-4h4c1.103,0,2,0.897,2,2H51.5z M46,35h-2v-4h2V35z M42,35H26v-4h16V35z M28.952,29h-4.189l-8,4    l7.739,3.87C22.631,38.24,20.355,39,18,39c-6.065,0-11-4.935-11-11s4.935-11,11-11s11,4.935,11,11    C29,28.334,28.982,28.668,28.952,29z M21.236,33L24,31.618v2.764L21.236,33z M56,59c0,1.103-0.897,2-2,2s-2-0.897-2-2V42h-2v17    c0,1.103-0.897,2-2,2s-2-0.897-2-2V37h2.051c0.245,1.692,1.691,3,3.449,3H56V59z M61,36.5c0,0.827-0.673,1.5-1.5,1.5h-8    c-0.827,0-1.5-0.673-1.5-1.5s0.673-1.5,1.5-1.5H59v-2h-3c0-2.206-1.794-4-4-4H41.466c1.29-4.118,5.118-7,9.534-7    c5.514,0,10,4.486,10,10V36.5z"/><path d="M18,19c-4.963,0-9,4.037-9,9c0,3.27,1.778,6.287,4.64,7.875l0.971-1.75C12.383,32.891,11,30.543,11,28    c0-3.859,3.141-7,7-7c3.524,0,6.511,2.633,6.946,6.124l1.984-0.248C26.371,22.386,22.531,19,18,19z"/><rect height="2" width="2" x="43" y="5"/><rect height="2" width="2" x="39" y="5"/><rect height="2" width="2" x="35" y="5"/><rect height="2" width="11" x="31" y="9"/><rect height="2" width="11" x="31" y="13"/><rect height="2" width="11" x="31" y="17"/><rect height="2" width="2" x="31" y="5"/></g></g></svg>