<?xml version="1.0" ?><!DOCTYPE svg  PUBLIC '-//W3C//DTD SVG 1.1//EN'  'http://www.w3.org/Graphics/SVG/1.1/DTD/svg11.dtd'><svg height="128px" style="shape-rendering:geometricPrecision; text-rendering:geometricPrecision; image-rendering:optimizeQuality; fill-rule:evenodd; clip-rule:evenodd" version="1.1" viewBox="0 0 61633 61633" width="128px" xml:space="preserve" xmlns="http://www.w3.org/2000/svg" xmlns:xlink="http://www.w3.org/1999/xlink"><defs><style type="text/css">
   <![CDATA[
    .fil4 {fill:#BCC1CB}
    .fil1 {fill:#D9DFE0}
    .fil2 {fill:whitesmoke}
    .fil0 {fill:#FF576B}
    .fil5 {fill:#154E5E;fill-rule:nonzero}
    .fil3 {fill:#CCCCCC;fill-rule:nonzero}
   ]]>
  </style></defs><g id="Layer_x0020_1"><g id="_714000704"><circle class="fil0" cx="30816" cy="30816" r="30816"/><g><path class="fil1" d="M44743 11978l-26593 0c-1802,0 -3272,1470 -3272,3271l0 35534c0,1802 1470,3271 3272,3271 8864,0 17728,0 26593,0 1802,0 3271,-1469 3271,-3271 0,-11845 0,-23689 0,-35534 0,-1801 -1469,-3271 -3271,-3271z"/><path class="fil2" d="M44102 11421l-26593 0c-1802,0 -3271,1469 -3271,3271l0 35533c0,1802 1469,3272 3271,3272 8865,0 17729,0 26593,0 1802,0 3271,-1470 3271,-3272 0,-11844 0,-23688 0,-35533 0,-1802 -1469,-3271 -3271,-3271z"/><path class="fil1" d="M43489 10849l-26593 0c-1802,0 -3272,1469 -3272,3271l0 35533c0,1802 1470,3272 3272,3272 8864,0 17728,0 26593,0 1802,0 3271,-1470 3271,-3272 0,-11844 0,-23689 0,-35533 0,-1802 -1469,-3271 -3271,-3271z"/><path class="fil2" d="M42517 10005l-26592 0c-1802,0 -3272,1470 -3272,3271l0 35534c0,1801 1470,3271 3272,3271l22538 0 7326 -7326 0 -31479c0,-1801 -1470,-3271 -3272,-3271z"/><path class="fil3" d="M39552 10005l0 5275c0,1041 -498,1716 -1135,2020 -253,121 -528,182 -801,182 -274,0 -548,-61 -801,-182 -637,-303 -1135,-979 -1135,-2020l0 -1644 885 0 0 1644c0,648 277,1053 630,1222 132,63 277,95 421,95 144,0 288,-32 421,-95 353,-169 630,-574 630,-1222l0 -5275 885 0z"/><polygon class="fil4" points="17076,23108 41272,23108 41272,24120 17076,24120 "/><polygon class="fil4" points="17076,27036 36623,27036 36623,28048 17076,28048 "/><polygon class="fil4" points="17076,30965 41272,30965 41272,31976 17076,31976 "/><polygon class="fil4" points="17076,34893 41272,34893 41272,35904 17076,35904 "/><polygon class="fil4" points="17076,38821 32015,38821 32015,39833 17076,39833 "/><polygon class="fil4" points="17076,18666 26768,18666 26768,20062 17076,20062 "/><path class="fil4" d="M40157 44755l5632 0 -7326 7326 0 -5632c0,-932 762,-1694 1694,-1694z"/><path class="fil5" d="M33900 10005l0 -974c0,-1271 663,-2101 1508,-2472 323,-141 675,-213 1027,-214 352,-1 704,70 1026,212 834,366 1483,1189 1483,2474l0 5881c0,1086 -523,1794 -1193,2113 -267,128 -557,191 -845,191 -289,0 -578,-63 -845,-191 -670,-319 -1194,-1027 -1194,-2113l0 -3054 1091 0 0 3054c0,603 251,976 571,1129 118,56 247,85 377,85 129,0 258,-29 376,-85 321,-153 572,-527 572,-1129l0 -5881c0,-784 -364,-1273 -831,-1478 -186,-82 -388,-122 -588,-122 -202,1 -405,43 -593,125 -477,209 -851,701 -851,1475l0 974 -1091 0z"/></g></g></g></svg>