<?xml version="1.0" encoding="UTF-8" standalone="no"?>
<svg
   version="1.0"
   width="512pt"
   height="361.90771pt"
   viewBox="0 0 512 361.90771"
   preserveAspectRatio="xMidYMid"
   id="svg1155"
   sodipodi:docname="ocpidev2.svg"
   xmlns:inkscape="http://www.inkscape.org/namespaces/inkscape"
   xmlns:sodipodi="http://sodipodi.sourceforge.net/DTD/sodipodi-0.dtd"
   xmlns="http://www.w3.org/2000/svg"
   xmlns:svg="http://www.w3.org/2000/svg">
  <defs
     id="defs1159" />
  <sodipodi:namedview
     id="namedview1157"
     pagecolor="#ffffff"
     bordercolor="#666666"
     borderopacity="1.0"
     inkscape:showpageshadow="2"
     inkscape:pageopacity="0.0"
     inkscape:pagecheckerboard="0"
     inkscape:deskcolor="#d1d1d1"
     inkscape:document-units="pt"
     showgrid="false" />
  <g
     transform="matrix(0.1,0,0,-0.1,-4.9999999,431.01029)"
     fill="#000000"
     stroke="none"
     id="g1153">
    <path
       d="m 1845,4295 c -259,-48 -476,-208 -581,-430 -67,-141 -64,-89 -63,-1160 v -970 l 157,-315 c 132,-266 161,-316 182,-322 14,-3 201,-6 416,-7 l 390,-1 15,-180 c 12,-144 19,-184 32,-198 15,-14 42,-17 184,-20 182,-4 215,3 231,46 6,15 16,100 23,190 l 12,162 h 387 c 264,0 397,4 420,11 30,11 43,33 186,327 l 154,315 v 962 c 0,925 -1,965 -20,1039 -72,282 -333,506 -650,556 -101,16 -1386,12 -1475,-5 z m 1431,-126 c 256,-35 459,-193 542,-420 l 27,-74 3,-945 3,-945 -135,-275 -136,-275 -360,-3 -360,-2 v 37 c 1,21 7,107 14,191 18,195 31,224 123,271 386,201 521,658 296,1010 -105,164 -290,292 -495,341 -114,27 -292,27 -406,0 -267,-64 -486,-252 -568,-490 -114,-328 41,-690 368,-860 93,-48 105,-76 123,-284 8,-89 15,-173 15,-188 v -28 h -360 -360 l -135,277 -136,277 3,946 3,945 23,67 c 75,221 290,392 537,427 91,13 1278,13 1371,0 z M 2733,2956 c 326,-63 559,-355 519,-652 -6,-44 -22,-109 -37,-145 -27,-68 -114,-191 -152,-217 l -23,-14 v 185 c 0,102 -4,197 -10,212 -6,15 -22,30 -40,36 l -30,11 v 142 c 0,164 -3,172 -82,206 -149,64 -420,64 -564,1 -85,-38 -84,-35 -84,-197 v -143 l -29,-16 c -17,-8 -33,-21 -38,-27 -4,-7 -10,-103 -13,-212 l -5,-199 -32,27 c -50,42 -130,170 -152,242 -46,148 -36,281 31,416 131,261 435,402 741,344 z m 35,-342 52,-15 v -87 -87 h -225 -225 v 87 86 l 38,13 c 86,29 259,30 360,3 z m 50,-339 72,-17 v -170 -171 l -74,-136 -74,-136 -33,-405 -34,-405 -80,-3 -80,-3 -34,408 -34,408 -74,136 -73,135 v 171 172 l 73,15 c 39,8 83,17 97,20 54,10 278,-2 348,-19 z"
       id="path1143" />
    <path
       d="m 2474,3863 c -86,-98 -161,-188 -167,-200 -14,-31 5,-70 39,-83 14,-6 88,-10 165,-10 76,0 139,-3 139,-6 0,-3 -45,-56 -100,-119 -107,-120 -118,-147 -80,-185 27,-27 73,-25 103,3 24,21 103,110 250,279 37,43 67,86 67,97 0,10 -9,29 -19,42 -18,23 -26,24 -179,29 l -159,5 103,117 c 111,125 122,150 84,188 -12,12 -33,20 -55,20 -32,0 -45,-12 -191,-177 z"
       id="path1145" />
    <path
       d="m 2485,2088 c -27,-15 -35,-28 -35,-59 0,-49 25,-59 148,-59 103,0 112,2 126,22 23,33 19,64 -10,87 -23,18 -40,21 -118,21 -50,0 -100,-6 -111,-12 z"
       id="path1147" />
    <path
       d="M 895,3443 C 802,3368 573,3187 388,3039 L 50,2770 v -97 -98 l 243,-192 c 133,-105 364,-288 512,-406 l 270,-215 3,141 c 2,130 1,143 -17,157 -11,8 -193,150 -406,314 -212,165 -382,303 -378,306 5,4 187,145 406,314 l 397,307 v 140 c 0,76 -3,139 -7,138 -5,0 -84,-61 -178,-136 z"
       id="path1149" />
    <path
       d="m 4140,3441 v -139 l 398,-308 c 218,-169 400,-310 405,-314 4,-3 -175,-148 -398,-320 l -405,-314 v -144 -144 l 48,39 c 27,21 259,205 515,408 l 467,370 v 96 97 l -33,28 c -65,56 -986,784 -991,784 -3,0 -6,-63 -6,-139 z"
       id="path1151" />
  </g>
  <path
     style="fill:#ffffff;stroke:#ffffff;stroke-width:0;paint-order:fill markers stroke"
     d="m 146.68556,288.12384 c -5.3686,-10.94707 -11.51257,-23.54471 -13.65327,-27.99474 l -3.8922,-8.09096 0.39549,-94.50248 0.39547,-94.502475 2.49518,-6.57031 c 7.41724,-19.53114 23.42607,-33.95973 44.45867,-40.0701 4.64724,-1.35011 8.05109,-1.80528 16.82921,-2.25042 14.36098,-0.72827 106.09706,-0.71718 120.7172,0.0146 13.29255,0.66532 20.1292,2.24121 29.55457,6.81252 15.32014,7.43027 26.28935,19.4335 32.51663,35.58184 l 2.4996,6.48189 0.46776,94.502475 0.46776,94.50248 -13.61405,27.6711 -13.61405,27.6711 h -35.64468 -35.64468 l 0.004,-3.39821 c 0.005,-4.59783 1.80934,-25.11799 2.63235,-29.93657 1.46207,-8.56014 3.64303,-11.64188 11.18715,-15.80756 10.78378,-5.95457 18.448,-12.35848 25.11531,-20.98539 13.55359,-17.53714 18.21045,-39.68779 12.81299,-60.94591 -1.6467,-6.4856 -7.30588,-18.08428 -11.54347,-23.65868 -11.78985,-15.50919 -31.27477,-27.27423 -50.81389,-30.68157 -7.53458,-1.31392 -24.86492,-1.33358 -32.3021,-0.0367 -26.96677,4.70257 -50.93954,23.36968 -60.27297,46.9332 -4.50337,11.36936 -5.91204,24.01664 -3.96915,35.63588 3.6853,22.03974 16.4873,40.14546 36.91527,52.20888 8.14041,4.80718 9.70719,6.08697 11.32047,9.24683 1.99059,3.89885 3.34605,13.75743 4.91697,35.76206 l 0.45054,6.31096 H 192.16008 156.44664 Z M 249.49963,106.68586 c 2.57668,-0.9698 5.34616,-3.7613 17.94887,-18.091575 17.73334,-20.16422 18.51665,-21.51916 14.91493,-25.79956 -2.03223,-2.41517 -3.02543,-2.57207 -20.13596,-3.18101 l -13.04355,-0.46419 7.43262,-8.41461 c 12.63204,-14.30091 14.65316,-18.46689 10.6098,-21.86916 -2.49904,-2.1028 -5.94621,-2.73319 -8.29737,-1.51736 -2.26275,1.17011 -9.69159,8.9095 -20.27353,21.12106 -14.38303,16.59801 -14.9057,17.50513 -12.62602,21.91355 1.61345,3.12005 3.41243,3.48944 18.65777,3.83105 8.44594,0.18926 14.07828,0.56663 14.07828,0.94326 0,0.34529 -2.77284,3.79472 -6.16188,7.6654 -9.93711,11.34936 -12.61254,15.16395 -12.58857,17.948655 0.0239,2.77043 0.96489,4.23705 3.60072,5.61163 2.22966,1.16276 3.43445,1.22477 5.88389,0.30286 z"
     id="path1278" />
  <path
     style="fill:#ffffff;stroke:#ffffff;stroke-width:0;paint-order:fill markers stroke"
     d="m 299.51351,226.0046 c -0.0419,-15.87173 -0.84637,-27.70032 -1.97693,-29.06969 -0.49796,-0.60315 -2.12299,-1.6365 -3.61117,-2.29632 l -2.70577,-1.19968 -0.20697,-14.18411 c -0.2427,-16.63234 -0.20942,-16.53955 -7.16027,-19.96123 -11.77531,-5.7966 -35.37243,-7.01513 -51.62529,-2.66588 -6.06185,1.62215 -12.34393,4.92803 -13.41043,7.0571 -0.56883,1.13557 -0.81989,5.67228 -0.84177,15.21102 l -0.0312,13.59282 -3.36889,1.94183 c -4.23576,2.4415 -4.15824,2.04928 -4.73344,23.94926 -0.24311,9.25607 -0.64996,17.22338 -0.90411,17.70516 -0.74998,1.42166 -4.71553,-2.55505 -9.13191,-9.15761 -8.65623,-12.9412 -10.61692,-19.06397 -10.61374,-33.14408 0.002,-9.30891 0.0903,-9.96265 2.13913,-15.8583 2.66748,-7.67575 5.53687,-12.85339 10.63604,-19.19202 8.47101,-10.53008 21.27031,-18.47056 35.92337,-22.28628 6.5705,-1.71099 19.53638,-2.32862 26.74798,-1.27414 34.6335,5.06409 60.38182,36.49979 54.93418,67.06828 -1.26829,7.11686 -3.78048,14.16807 -6.78768,19.05174 -4.02478,6.53619 -9.10341,13.16182 -11.37734,14.84302 l -1.86339,1.37766 z"
     id="path1280" />
  <path
     style="fill:#ffffff;stroke:#ffffff;stroke-width:0;paint-order:fill markers stroke"
     d="m 232.22711,179.89273 v -8.38859 l 4.36911,-1.40834 c 3.44821,-1.11148 6.48586,-1.47352 14.41158,-1.71766 10.22083,-0.31482 16.23261,0.24986 22.48323,2.11185 l 3.3982,1.01228 v 8.38953 8.38953 h -22.33106 -22.33106 z"
     id="path1282" />
  <path
     style="fill:#ffffff;stroke:#ffffff;stroke-width:0;paint-order:fill markers stroke"
     d="m 243.39596,306.87302 -3.37581,-40.63851 -7.45654,-13.70989 -7.45655,-13.70989 v -16.70016 -16.70016 l 8.90006,-1.78371 c 7.31276,-1.4656 10.57393,-1.78034 18.28558,-1.76482 10.34714,0.0208 18.41448,0.75494 26.0529,2.37075 l 5.0164,1.06116 v 17.15902 17.15901 l -7.22583,13.32214 -7.22583,13.32214 -0.52406,6.1582 c -0.28823,3.38701 -1.70384,20.72194 -3.14578,38.52206 -1.44194,17.80013 -2.77372,33.3105 -2.95951,34.46751 l -0.3378,2.10366 h -7.58571 -7.58573 z m 22.09278,-73.25448 c 1.84338,-0.70085 3.63316,-3.70347 3.63316,-6.09513 0,-2.27253 -2.90122,-5.42959 -5.70528,-6.2084 -1.31212,-0.36443 -5.00716,-0.64686 -8.21118,-0.62763 -12.16612,0.073 -15.21101,1.56137 -15.21101,7.43507 0,3.74087 0.70044,4.68954 4.04947,5.4846 3.06574,0.7278 19.53759,0.73662 21.44484,0.0115 z"
     id="path1284" />
</svg>
